<?xml version="1.0" standalone="no"?>
<!DOCTYPE svg PUBLIC "-//W3C//DTD SVG 20010904//EN"
 "http://www.w3.org/TR/2001/REC-SVG-20010904/DTD/svg10.dtd">
<svg version="1.0" xmlns="http://www.w3.org/2000/svg"
 width="966.000000pt" height="966.000000pt" viewBox="0 0 966.000000 966.000000"
 preserveAspectRatio="xMidYMid meet">
<metadata>
Created by potrace 1.14, written by Peter Selinger 2001-2017
</metadata>
<g transform="translate(0.000000,966.000000) scale(0.100000,-0.100000)"
fill="#000000" stroke="none">
<path d="M5559 9176 c-2 -2 -37 -6 -78 -10 -234 -20 -422 -131 -560 -331 -28
-40 -51 -76 -51 -79 0 -4 -7 -18 -16 -32 l-17 -24 -30 57 c-104 199 -261 326
-482 390 -106 30 -337 23 -374 -12 -18 -18 -10 -30 148 -229 127 -161 150
-179 181 -141 18 22 8 39 -104 182 -53 67 -96 124 -96 127 0 2 44 3 98 1 156
-5 292 -60 405 -164 105 -97 210 -296 208 -395 -1 -56 11 -76 45 -76 35 0 54
26 54 74 0 111 94 296 200 394 35 33 148 105 195 125 63 27 164 45 234 41 35
-1 66 -5 68 -8 3 -3 -40 -63 -96 -134 -55 -72 -101 -137 -101 -145 0 -20 38
-47 56 -40 8 3 38 35 66 72 29 36 58 72 65 79 7 7 13 16 13 20 0 4 25 34 56
67 30 33 62 70 71 82 23 34 9 71 -32 89 -32 13 -118 27 -126 20z"/>
<path d="M3848 8615 c-2 -1 -25 -5 -53 -8 -176 -19 -356 -113 -465 -244 -47
-56 -115 -161 -109 -168 4 -3 74 -11 199 -20 41 -3 95 -8 120 -10 25 -3 81 -7
125 -10 44 -3 106 -7 138 -11 66 -6 87 5 87 42 0 32 -23 40 -145 48 -108 7
-212 15 -260 21 -16 2 -49 4 -72 4 -25 1 -43 6 -43 12 0 6 33 44 73 83 130
130 280 185 472 173 49 -3 97 -8 105 -10 184 -47 313 -138 408 -287 48 -76 59
-67 -113 -105 -124 -28 -316 -97 -336 -121 -6 -8 -15 -14 -20 -14 -13 0 -91
-56 -140 -102 -58 -54 -124 -139 -154 -197 -26 -52 -63 -168 -71 -221 -7 -49
-6 -184 1 -202 10 -26 43 -27 88 -4 65 35 567 310 612 336 37 20 186 110 254
152 23 15 30 16 46 5 17 -13 18 -43 17 -510 0 -273 -3 -501 -7 -507 -3 -5 -12
-10 -20 -10 -18 0 -134 88 -205 155 -129 122 -195 171 -293 215 -203 91 -393
48 -611 -140 -73 -62 -87 -87 -68 -117 7 -11 26 -17 48 -14 6 0 33 21 60 46
132 122 270 187 381 180 76 -5 94 -9 158 -39 81 -37 136 -78 242 -179 52 -51
125 -109 161 -130 132 -76 156 -116 156 -265 -1 -167 -29 -172 -176 -33 -149
142 -169 159 -253 215 -177 120 -342 134 -519 44 -54 -27 -113 -64 -126 -79
-3 -3 -32 -25 -65 -50 -33 -24 -63 -48 -67 -54 -13 -17 -9 -52 8 -66 31 -26
52 -19 100 31 116 121 261 190 389 184 123 -5 230 -65 401 -225 61 -57 142
-122 180 -145 50 -30 77 -54 99 -89 29 -46 29 -51 30 -179 0 -112 -3 -134 -18
-149 -14 -14 -21 -15 -40 -6 -18 10 -185 153 -287 247 -40 36 -126 91 -183
116 -179 80 -372 48 -542 -90 -16 -13 -53 -40 -82 -60 -58 -39 -71 -65 -52
-100 20 -39 58 -31 109 22 58 60 176 137 243 160 113 39 244 20 356 -50 40
-25 142 -109 193 -158 194 -186 349 -260 533 -254 169 5 291 67 507 258 188
166 267 209 392 213 123 4 220 -40 370 -170 54 -47 106 -85 116 -85 10 0 26 7
34 16 21 21 12 37 -72 120 -203 203 -433 260 -646 159 -73 -35 -142 -86 -296
-224 -68 -61 -136 -111 -173 -126 -43 -18 -39 -37 -40 160 -1 115 2 135 21
171 26 51 63 83 150 129 38 20 102 68 147 111 179 170 286 225 421 218 120 -7
221 -63 393 -222 42 -38 75 -49 96 -32 27 23 16 52 -42 109 -315 306 -592 312
-908 20 -87 -80 -201 -170 -224 -176 -31 -8 -51 18 -52 66 -4 122 10 231 29
231 24 0 190 126 294 222 16 15 47 42 69 60 23 18 52 43 66 55 43 35 127 72
189 82 85 13 139 3 239 -44 75 -35 158 -93 243 -168 29 -26 60 -47 69 -47 25
0 53 29 45 48 -10 27 -72 90 -151 154 -198 160 -393 194 -586 103 -84 -40
-193 -125 -364 -282 -75 -69 -140 -89 -142 -44 0 9 0 231 -1 495 0 330 4 482
11 489 13 13 32 4 321 -155 415 -228 644 -348 663 -348 23 0 28 13 31 83 12
244 -96 469 -294 616 -130 97 -264 153 -453 191 -54 11 -103 22 -108 26 -49
30 113 220 255 297 121 67 298 92 436 63 137 -29 285 -119 345 -209 29 -45 17
-49 -175 -61 -296 -19 -310 -21 -310 -60 0 -34 29 -48 87 -42 27 3 86 8 133
11 47 3 105 8 130 10 25 3 79 7 120 10 93 6 204 17 207 19 2 2 -20 36 -48 77
-165 242 -382 352 -658 336 -118 -7 -148 -13 -228 -42 -134 -48 -247 -137
-332 -259 -65 -94 -95 -160 -87 -192 7 -26 12 -28 201 -64 409 -77 656 -303
691 -631 6 -55 5 -59 -12 -53 -11 4 -23 10 -29 14 -5 4 -46 26 -90 50 -44 23
-235 127 -425 230 -302 164 -438 237 -462 248 -3 2 -6 -469 -6 -1045 1 -1068
0 -1092 -35 -1094 -173 -11 -194 -8 -208 29 -6 17 -10 395 -10 1042 0 558 -2
1023 -5 1033 -8 27 -38 20 -131 -32 -49 -26 -119 -65 -158 -86 -38 -21 -83
-46 -100 -55 -31 -18 -59 -33 -265 -145 -69 -37 -150 -81 -180 -98 -113 -63
-162 -87 -176 -87 -28 0 2 158 49 259 69 152 214 281 399 356 75 31 231 71
308 80 134 15 150 37 101 140 -108 231 -353 393 -618 409 -40 2 -73 3 -75 1z"/>
<path d="M3869 5769 c-32 -32 -18 -69 26 -69 36 0 136 -30 187 -55 62 -31 121
-77 228 -175 181 -167 290 -228 438 -246 219 -27 356 29 589 242 173 158 239
198 367 224 85 17 110 35 90 67 -16 26 -52 31 -129 16 -104 -19 -179 -61 -305
-170 -62 -54 -144 -123 -182 -154 -202 -164 -417 -186 -618 -64 -31 19 -120
90 -198 159 -78 68 -163 138 -189 155 -59 39 -146 72 -203 78 -25 2 -53 6 -63
8 -10 2 -27 -5 -38 -16z"/>
<path d="M5500 3867 l0 -1097 115 0 115 0 2 677 3 676 129 -214 129 -214 1
-463 1 -463 114 3 114 3 0 1031 c0 567 -3 1036 -6 1040 -3 5 -54 9 -114 9
l-108 0 0 -368 c0 -202 -1 -367 -2 -367 -2 0 -64 102 -91 150 -10 19 -63 112
-117 205 -54 94 -106 184 -115 200 -37 67 -162 280 -166 284 -2 2 -4 -489 -4
-1092z"/>
<path d="M7656 4909 c-156 -22 -278 -134 -304 -279 -4 -25 -7 -400 -7 -835 2
-776 2 -791 23 -843 56 -144 190 -232 352 -232 179 0 315 102 360 270 13 49
18 1582 5 1642 -30 137 -156 256 -288 274 -23 3 -51 7 -62 8 -11 2 -46 -1 -79
-5z m134 -247 c19 -9 43 -33 55 -52 19 -34 20 -50 19 -780 0 -731 0 -746 -21
-791 -54 -121 -235 -98 -259 33 -4 24 -8 360 -9 748 -1 744 1 781 44 821 44
42 114 50 171 21z"/>
<path d="M330 4138 l0 -718 -160 0 c-88 0 -160 -3 -160 -7 0 -5 29 -53 64
-108 l63 -100 92 -1 c50 -1 93 -3 95 -5 2 -2 6 -49 9 -104 8 -161 53 -246 156
-294 54 -25 63 -26 274 -29 l217 -4 1 31 c0 17 1 60 1 96 0 36 -1 74 -1 85 -1
19 -8 20 -180 20 -99 0 -191 4 -204 9 -31 12 -40 38 -41 124 l-2 67 41 1 c22
0 118 0 213 1 l172 0 1 26 c1 15 1 63 2 107 l0 80 -214 5 -214 5 -1 590 c0
325 2 595 4 601 2 8 48 12 145 12 78 1 174 1 212 1 l70 1 0 110 c0 61 -2 111
-5 111 -3 1 -150 2 -327 3 l-323 1 0 -717z"/>
<path d="M1860 4852 c-6 -2 -10 -47 -10 -113 l0 -109 43 -1 c23 0 78 -2 122
-2 l80 -2 2 -920 c1 -506 2 -923 2 -927 1 -5 51 -8 111 -8 81 0 110 3 111 13
0 6 1 424 1 928 l1 917 101 0 c56 0 111 0 124 1 21 1 22 4 22 114 l0 112 -350
0 c-192 0 -354 -1 -360 -3z"/>
<path d="M3638 4852 c-15 -3 -16 -58 -15 -718 l2 -714 -162 0 c-90 0 -163 -3
-162 -7 0 -5 28 -53 62 -108 l62 -100 94 -2 c52 -2 96 -5 98 -7 3 -3 5 -99 5
-215 l0 -211 112 0 113 0 1 211 c0 115 2 212 5 215 4 4 157 7 252 5 l30 -1 0
-215 -1 -215 113 0 113 0 -2 1042 -3 1043 -100 1 c-55 0 -105 -2 -110 -5 -8
-4 -11 -233 -11 -716 l1 -710 -143 -3 c-110 -2 -142 0 -143 10 0 7 -1 330 -2
718 l-2 705 -95 0 c-52 0 -103 -1 -112 -3z"/>
<path d="M9341 4850 c-16 -10 -84 -124 -113 -188 -31 -69 -62 -164 -72 -222
-3 -19 -9 -46 -12 -60 -13 -57 -13 -278 1 -350 19 -107 32 -152 136 -454 104
-305 109 -338 70 -479 -25 -93 -56 -156 -122 -254 l-49 -73 145 0 146 0 35 78
c75 163 112 378 89 517 -13 73 -54 202 -114 352 -115 290 -138 406 -115 587
20 159 129 386 244 504 22 23 39 43 38 43 -10 4 -301 3 -307 -1z"/>
<path d="M1538 2534 c-2 -33 -8 -48 -18 -49 -8 -1 -62 -8 -120 -14 -58 -7
-130 -16 -160 -21 -30 -5 -71 -12 -90 -15 -129 -20 -239 -63 -224 -86 6 -10
127 -5 144 6 4 3 22 7 41 9 19 3 66 12 104 20 39 9 80 19 93 22 13 2 69 16
125 29 55 14 103 23 105 20 5 -4 3 -166 -3 -255 -2 -30 -6 -134 -10 -230 -4
-96 -8 -206 -10 -245 -16 -328 -21 -811 -10 -900 8 -60 27 -85 53 -68 16 10
17 17 6 73 -13 71 -3 613 21 1100 6 120 17 406 19 485 l1 60 55 7 c167 21 282
25 371 13 30 -4 51 -4 47 0 -3 4 -33 9 -65 12 -32 3 -60 7 -62 9 -5 4 72 6
175 5 42 0 66 4 73 13 18 21 -9 26 -119 21 -123 -5 -186 -12 -343 -40 l-127
-22 -6 26 c-8 40 -19 56 -42 59 -18 3 -21 -3 -24 -44z m-315 -131 c-7 -2 -19
-2 -25 0 -7 3 -2 5 12 5 14 0 19 -2 13 -5z m-58 -13 c-11 -5 -31 -8 -45 -8
-23 0 -22 1 5 8 42 11 65 11 40 0z m-95 -20 c-14 -4 -34 -8 -45 -8 -16 0 -15
2 5 8 14 4 34 8 45 8 16 0 15 -2 -5 -8z"/>
<path d="M4894 2426 c-26 -19 -38 -56 -18 -56 7 0 18 9 24 20 7 14 21 20 43
20 37 0 148 -27 160 -39 4 -4 1 -40 -8 -79 -8 -39 -17 -86 -20 -104 -3 -18 -7
-44 -10 -58 -3 -14 -7 -47 -10 -75 -4 -27 -8 -57 -10 -65 -4 -15 -27 -227 -41
-375 -5 -44 -8 -159 -9 -256 l0 -176 -35 9 c-19 4 -60 11 -91 14 -46 5 -57 3
-62 -10 -7 -17 12 -34 22 -19 3 6 13 9 21 8 33 -6 77 -14 105 -21 69 -16 159
-7 218 21 31 16 57 34 57 42 0 18 -3 17 -61 -12 -27 -14 -67 -28 -88 -30 l-39
-3 -4 41 c-6 53 -2 260 6 352 4 39 8 95 11 125 14 175 52 441 81 581 l16 76
54 6 c55 6 129 40 138 64 8 19 -6 16 -55 -12 -46 -26 -129 -35 -129 -14 0 7
-10 9 -24 5 -14 -3 -44 1 -68 9 -72 24 -150 29 -174 11z"/>
<path d="M4163 2355 c-17 -7 -44 -32 -58 -54 -27 -40 -68 -162 -79 -236 -3
-22 -8 -51 -11 -64 -17 -85 -25 -407 -13 -518 7 -60 -10 -91 -62 -113 -49 -20
-63 -1 -57 77 5 57 4 63 -13 63 -10 0 -23 -7 -27 -15 -6 -11 -16 -12 -38 -7
-46 13 -117 -4 -143 -34 -39 -44 -252 -104 -324 -90 -19 3 -43 15 -53 26 -15
17 -16 24 -5 50 13 31 58 71 94 84 15 5 17 4 7 -8 -13 -16 1 -32 19 -21 15 9
12 45 -3 51 -30 11 -141 -52 -152 -86 -3 -10 -25 -28 -48 -39 -39 -19 -52 -34
-101 -113 -9 -16 -20 -28 -25 -28 -15 0 -18 61 -6 131 8 53 8 69 -1 73 -14 5
-34 -13 -34 -30 0 -18 -9 -22 -99 -48 l-79 -23 8 28 c5 16 7 36 5 46 -2 10 -4
26 -4 36 -1 10 -14 31 -30 47 -24 24 -35 28 -72 26 -37 -3 -50 -10 -84 -48
-23 -26 -52 -75 -68 -114 -36 -91 -73 -243 -76 -307 -1 -10 -5 -16 -10 -12 -6
3 -9 13 -9 23 0 9 -3 33 -6 52 -25 138 -28 318 -7 385 7 22 24 57 38 77 16 24
23 44 18 57 -22 72 -101 -60 -112 -188 -7 -75 -24 -93 -98 -99 -46 -4 -55 -2
-56 12 -2 20 -3 25 -13 54 -6 18 -14 22 -34 20 -36 -4 -40 -37 -9 -74 18 -21
22 -35 17 -50 -9 -22 -35 -34 -58 -26 -23 7 -44 62 -38 98 12 63 94 104 118
59 11 -19 28 -20 28 -1 0 31 -32 48 -80 44 -116 -11 -168 -130 -92 -210 35
-37 92 -39 127 -3 14 13 25 31 25 40 0 13 25 18 95 15 3 0 19 7 35 15 28 14
30 14 31 -2 1 -26 16 -159 25 -223 3 -19 14 -80 24 -135 14 -74 19 -143 18
-265 0 -91 2 -184 5 -207 6 -44 22 -83 35 -83 51 1 57 137 17 350 -2 14 -7 39
-10 55 -26 134 24 433 95 575 40 78 105 106 142 60 20 -25 22 -49 8 -100 -9
-31 -18 -39 -84 -68 -110 -50 -148 -92 -83 -92 52 0 121 28 166 66 38 33 202
100 214 87 3 -2 1 -18 -3 -34 -15 -52 2 -107 37 -115 30 -8 46 7 82 73 14 26
41 58 60 70 l35 23 12 -29 c17 -40 49 -55 116 -53 59 1 188 30 251 57 34 14
36 14 32 -4 -5 -29 22 -61 52 -61 34 0 77 30 131 92 23 27 42 45 43 41 0 -4 0
-27 -1 -50 -1 -34 3 -44 23 -58 28 -18 66 -8 104 27 l21 20 12 -59 c35 -182
91 -227 175 -140 42 44 80 105 115 184 24 56 7 56 -21 1 -22 -44 -94 -155
-113 -174 -6 -6 -21 -16 -33 -23 -19 -10 -24 -8 -37 11 -18 28 -24 53 -35 145
-8 64 -6 81 15 150 25 76 98 361 108 418 3 17 8 41 11 55 34 169 46 324 26
373 -12 30 -22 32 -68 12z m53 -41 c6 -25 0 -138 -11 -199 -3 -16 -10 -57 -16
-90 -15 -88 -112 -492 -124 -520 -6 -12 3 401 9 430 2 12 7 52 11 90 12 133
46 265 76 302 19 22 48 15 55 -13z m-413 -868 c-52 -61 -86 -86 -118 -86 -14
0 -16 6 -10 28 15 62 64 95 123 84 22 -4 22 -5 5 -26z m-1546 -18 c-3 -8 -6
-5 -6 6 -1 11 2 17 5 13 3 -3 4 -12 1 -19z m493 -104 c0 -8 -91 -46 -97 -40
-3 3 7 11 23 17 16 6 38 15 49 19 26 11 25 11 25 4z m-206 -589 c3 -27 9 -93
12 -145 5 -76 4 -93 -6 -83 -9 8 -14 58 -18 150 -4 139 0 171 12 78z"/>
<path d="M7663 2208 c-30 -34 -45 -65 -69 -143 -20 -67 -23 -71 -75 -98 -86
-46 -135 -80 -122 -84 7 -3 25 4 40 15 16 11 52 31 81 46 l53 27 -6 -43 c-4
-24 -8 -145 -10 -269 -2 -124 -7 -233 -10 -242 -10 -24 -74 -59 -96 -52 -21 7
-22 15 -19 93 2 55 -9 65 -40 37 -12 -11 -24 -13 -40 -7 -12 5 -43 5 -68 2
-81 -13 -132 -100 -84 -143 38 -34 84 -14 160 68 l52 56 0 -48 c0 -26 4 -54 9
-62 15 -23 67 -17 105 13 l36 27 0 -28 c1 -78 25 -191 52 -249 24 -51 56 -69
88 -47 20 14 80 130 80 156 0 7 4 19 10 27 7 12 12 12 35 0 35 -19 52 -7 87
56 47 85 108 122 108 65 0 -18 11 -40 29 -60 41 -44 98 -44 135 0 14 17 24 35
20 40 -3 5 18 9 48 9 29 0 66 7 82 15 15 8 30 15 32 15 2 0 4 -30 4 -66 0 -69
12 -104 35 -104 18 0 22 30 12 119 -6 64 -4 80 13 117 21 42 63 80 79 70 4 -3
13 -38 20 -78 17 -93 37 -137 67 -144 30 -8 75 20 109 66 38 51 30 59 -11 12
-74 -87 -99 -78 -114 43 -13 103 -30 129 -78 122 -36 -6 -92 -51 -92 -73 0 -7
-4 -15 -9 -19 -11 -6 -8 98 4 156 6 29 4 36 -8 36 -27 0 -42 -56 -40 -150 2
-85 1 -87 -25 -100 -15 -8 -48 -15 -74 -16 l-47 -2 -3 37 c-4 44 -28 65 -55
48 -23 -14 -18 -53 8 -76 24 -21 24 -33 -1 -58 -16 -16 -24 -18 -44 -9 -46 21
-50 103 -7 147 33 32 60 35 90 8 27 -24 37 -2 11 24 -41 41 -141 14 -177 -48
-9 -15 -32 -35 -52 -44 -22 -10 -47 -34 -61 -58 -38 -63 -58 -86 -66 -77 -11
10 -7 128 5 159 7 20 6 29 -3 37 -20 17 -33 -5 -51 -85 -21 -90 -81 -252 -105
-284 -17 -22 -21 -23 -34 -10 -32 32 -64 282 -47 361 5 24 12 60 15 79 3 19 8
45 10 56 2 12 7 37 10 55 3 19 7 43 10 54 2 11 7 42 10 68 4 27 9 56 10 65 2
10 7 44 12 77 4 33 8 63 10 68 1 4 2 18 3 30 1 21 13 28 99 56 53 17 142 40
196 51 98 20 114 25 105 35 -11 10 -297 -58 -383 -91 -9 -4 -11 8 -6 43 5 42
6 90 1 116 -2 15 -38 6 -58 -15z m44 -25 c-3 -5 -8 -35 -11 -68 -5 -37 -13
-65 -23 -72 -9 -7 -19 -11 -21 -8 -11 11 39 155 54 155 3 0 3 -3 1 -7z m-32
-210 c-6 -56 -16 -130 -21 -158 -2 -10 -6 -35 -9 -55 -3 -20 -7 -45 -9 -57 -3
-12 -8 -42 -11 -67 -4 -26 -11 -49 -16 -52 -5 -3 -7 1 -5 8 3 7 7 72 10 143 3
72 8 141 11 154 2 12 7 44 10 69 5 42 17 61 38 62 4 0 5 -21 2 -47z m-316
-509 c11 -10 -94 -104 -116 -104 -46 0 -13 89 41 110 20 7 65 4 75 -6z"/>
<path d="M6185 1692 c-33 -23 -72 -128 -78 -206 l-3 -50 -60 3 c-67 3 -140
-18 -195 -55 -33 -23 -40 -24 -86 -14 -28 6 -59 18 -69 25 -17 13 -17 16 -4
25 8 6 26 13 40 17 111 29 138 123 35 123 -54 0 -120 -53 -135 -110 -11 -40
-82 -120 -106 -120 -19 0 -33 39 -39 104 -8 80 -23 115 -52 122 -36 9 -85 -19
-111 -64 -12 -20 -22 -30 -23 -22 -4 40 2 112 11 135 13 35 13 42 -6 49 -11 4
-19 -4 -29 -28 -18 -43 -20 -83 -10 -176 5 -41 8 -97 8 -124 -1 -28 5 -63 14
-79 30 -59 45 4 33 144 -4 44 25 104 63 133 36 26 37 25 51 -70 23 -147 74
-181 151 -101 l41 43 29 -18 c17 -10 53 -23 82 -29 29 -7 53 -13 53 -14 0 -1
-12 -30 -27 -66 -38 -92 -39 -202 -1 -279 61 -124 188 -146 285 -50 85 83 63
251 -44 340 -21 17 -64 40 -95 52 -32 11 -56 24 -54 27 3 4 26 18 53 31 54 28
174 38 191 17 5 -7 13 -54 17 -106 3 -51 8 -98 10 -105 2 -6 7 -29 10 -51 3
-22 12 -76 20 -120 9 -47 17 -164 19 -285 3 -204 13 -270 41 -270 37 0 53 97
35 220 -16 108 -22 146 -34 211 -7 37 -12 73 -11 80 2 8 8 52 14 99 25 191 63
322 116 401 54 83 153 61 139 -31 -11 -68 -13 -71 -92 -107 -83 -37 -112 -58
-112 -80 0 -38 144 4 203 60 15 13 42 30 60 37 17 6 48 18 67 25 83 32 81 33
74 -28 -7 -60 4 -92 36 -102 30 -9 48 6 84 70 21 38 44 65 66 77 l35 18 7 -37
c3 -21 9 -51 13 -68 4 -16 9 -52 11 -80 7 -62 23 -107 38 -102 12 4 13 58 3
122 -7 46 24 188 54 247 11 21 29 43 41 49 18 10 24 8 40 -11 10 -13 24 -20
33 -16 22 8 18 22 -12 44 -22 15 -35 17 -60 10 -39 -10 -68 -55 -99 -152 l-22
-71 0 55 c-1 30 3 64 7 75 11 27 3 45 -19 45 -18 0 -30 -26 -30 -67 0 -14 -12
-27 -37 -40 -33 -17 -56 -43 -110 -129 -10 -17 -13 -17 -23 -4 -11 15 -7 120
6 168 5 17 2 22 -14 22 -12 0 -22 -9 -26 -23 -4 -19 -20 -27 -95 -49 -87 -24
-90 -24 -79 -5 14 27 5 97 -17 130 -38 59 -136 39 -186 -38 -49 -75 -90 -201
-124 -380 l-8 -40 -8 35 c-15 67 -24 176 -24 300 0 133 -4 118 61 239 18 34
-4 63 -31 43z m-387 -189 c-15 -19 -108 -66 -116 -59 -8 9 36 53 71 69 37 18
64 12 45 -10z m118 -218 c105 -62 164 -220 116 -315 -9 -19 -34 -44 -55 -56
-155 -86 -282 150 -188 351 29 64 30 65 58 54 15 -5 46 -21 69 -34z m494 40
c0 -7 -78 -45 -92 -44 -7 0 10 11 37 25 55 26 55 26 55 19z m-199 -602 c1 -21
3 -47 4 -58 16 -106 8 -204 -10 -132 -10 38 -12 227 -3 227 4 0 9 -17 9 -37z"/>
<path d="M3051 1621 c-13 -24 8 -55 32 -46 15 6 15 10 1 36 -17 34 -20 35 -33
10z"/>
<path d="M6716 1624 c-10 -26 -7 -42 11 -48 25 -10 34 7 21 37 -15 31 -23 34
-32 11z"/>
<path d="M7842 1623 c-9 -15 -8 -25 3 -39 12 -17 15 -17 29 -4 13 13 13 18 -3
39 -18 24 -19 24 -29 4z"/>
<path d="M1953 1574 c-20 -9 -55 -72 -80 -148 l-23 -71 5 88 c5 81 4 87 -14
87 -30 0 -39 -62 -27 -168 3 -23 7 -46 10 -51 3 -4 8 -30 11 -57 11 -93 16
-112 30 -118 19 -7 27 24 19 76 -3 24 -8 53 -9 64 -4 31 28 160 53 217 26 59
57 74 90 44 18 -17 25 -18 35 -8 26 27 -54 63 -100 45z"/>
</g>
</svg>
