<svg id="visual" viewBox="0 0 960 540" width="960" height="540" xmlns="http://www.w3.org/2000/svg" xmlns:xlink="http://www.w3.org/1999/xlink" version="1.1"><rect x="0" y="0" width="960" height="540" fill="#e9dfdf"></rect><defs><linearGradient id="grad1_0" x1="43.8%" y1="0%" x2="100%" y2="100%"><stop offset="14.444444444444446%" stop-color="#c72c6d" stop-opacity="1"></stop><stop offset="85.55555555555554%" stop-color="#c72c6d" stop-opacity="1"></stop></linearGradient></defs><defs><linearGradient id="grad1_1" x1="43.8%" y1="0%" x2="100%" y2="100%"><stop offset="14.444444444444446%" stop-color="#c72c6d" stop-opacity="1"></stop><stop offset="85.55555555555554%" stop-color="#d3597d" stop-opacity="1"></stop></linearGradient></defs><defs><linearGradient id="grad1_2" x1="43.8%" y1="0%" x2="100%" y2="100%"><stop offset="14.444444444444446%" stop-color="#dc7d90" stop-opacity="1"></stop><stop offset="85.55555555555554%" stop-color="#d3597d" stop-opacity="1"></stop></linearGradient></defs><defs><linearGradient id="grad1_3" x1="43.8%" y1="0%" x2="100%" y2="100%"><stop offset="14.444444444444446%" stop-color="#dc7d90" stop-opacity="1"></stop><stop offset="85.55555555555554%" stop-color="#e39ea7" stop-opacity="1"></stop></linearGradient></defs><defs><linearGradient id="grad1_4" x1="43.8%" y1="0%" x2="100%" y2="100%"><stop offset="14.444444444444446%" stop-color="#e8bfc1" stop-opacity="1"></stop><stop offset="85.55555555555554%" stop-color="#e39ea7" stop-opacity="1"></stop></linearGradient></defs><defs><linearGradient id="grad1_5" x1="43.8%" y1="0%" x2="100%" y2="100%"><stop offset="14.444444444444446%" stop-color="#e8bfc1" stop-opacity="1"></stop><stop offset="85.55555555555554%" stop-color="#e9dfdf" stop-opacity="1"></stop></linearGradient></defs><defs><linearGradient id="grad2_0" x1="0%" y1="0%" x2="56.3%" y2="100%"><stop offset="14.444444444444446%" stop-color="#c72c6d" stop-opacity="1"></stop><stop offset="85.55555555555554%" stop-color="#c72c6d" stop-opacity="1"></stop></linearGradient></defs><defs><linearGradient id="grad2_1" x1="0%" y1="0%" x2="56.3%" y2="100%"><stop offset="14.444444444444446%" stop-color="#d3597d" stop-opacity="1"></stop><stop offset="85.55555555555554%" stop-color="#c72c6d" stop-opacity="1"></stop></linearGradient></defs><defs><linearGradient id="grad2_2" x1="0%" y1="0%" x2="56.3%" y2="100%"><stop offset="14.444444444444446%" stop-color="#d3597d" stop-opacity="1"></stop><stop offset="85.55555555555554%" stop-color="#dc7d90" stop-opacity="1"></stop></linearGradient></defs><defs><linearGradient id="grad2_3" x1="0%" y1="0%" x2="56.3%" y2="100%"><stop offset="14.444444444444446%" stop-color="#e39ea7" stop-opacity="1"></stop><stop offset="85.55555555555554%" stop-color="#dc7d90" stop-opacity="1"></stop></linearGradient></defs><defs><linearGradient id="grad2_4" x1="0%" y1="0%" x2="56.3%" y2="100%"><stop offset="14.444444444444446%" stop-color="#e39ea7" stop-opacity="1"></stop><stop offset="85.55555555555554%" stop-color="#e8bfc1" stop-opacity="1"></stop></linearGradient></defs><defs><linearGradient id="grad2_5" x1="0%" y1="0%" x2="56.3%" y2="100%"><stop offset="14.444444444444446%" stop-color="#e9dfdf" stop-opacity="1"></stop><stop offset="85.55555555555554%" stop-color="#e8bfc1" stop-opacity="1"></stop></linearGradient></defs><g transform="translate(960, 0)"><path d="M0 486C-64.1 477.6 -128.1 469.3 -184.1 444.4C-240 419.5 -287.8 378.1 -333.8 333.8C-379.7 289.4 -423.9 242.1 -449 186C-474.1 129.9 -480 64.9 -486 0L0 0Z" fill="#e9cfd0"></path><path d="M0 405C-53.4 398 -106.8 391.1 -153.4 370.3C-200 349.6 -239.8 315.1 -278.1 278.1C-316.4 241.2 -353.3 201.8 -374.2 155C-395.1 108.2 -400 54.1 -405 0L0 0Z" fill="#e6afb4"></path><path d="M0 324C-42.7 318.4 -85.4 312.8 -122.7 296.3C-160 279.7 -191.8 252.1 -222.5 222.5C-253.2 192.9 -282.6 161.4 -299.3 124C-316.1 86.6 -320 43.3 -324 0L0 0Z" fill="#e08e9b"></path><path d="M0 243C-32 238.8 -64.1 234.6 -92 222.2C-120 209.8 -143.9 189.1 -166.9 166.9C-189.9 144.7 -212 121.1 -224.5 93C-237 64.9 -240 32.5 -243 0L0 0Z" fill="#d86b86"></path><path d="M0 162C-21.4 159.2 -42.7 156.4 -61.4 148.1C-80 139.8 -95.9 126 -111.3 111.3C-126.6 96.5 -141.3 80.7 -149.7 62C-158 43.3 -160 21.6 -162 0L0 0Z" fill="#cd4575"></path><path d="M0 81C-10.7 79.6 -21.4 78.2 -30.7 74.1C-40 69.9 -48 63 -55.6 55.6C-63.3 48.2 -70.7 40.4 -74.8 31C-79 21.6 -80 10.8 -81 0L0 0Z" fill="#c72c6d"></path></g><g transform="translate(0, 540)"><path d="M0 -486C64.9 -480.3 129.8 -474.5 186 -449C242.2 -423.5 289.6 -378.2 330.9 -330.9C372.3 -283.7 407.5 -234.6 432.4 -179.1C457.2 -123.6 471.6 -61.8 486 0L0 0Z" fill="#e9cfd0"></path><path d="M0 -405C54.1 -400.2 108.2 -395.4 155 -374.2C201.8 -352.9 241.3 -315.1 275.8 -275.8C310.2 -236.4 339.6 -195.5 360.3 -149.2C381 -103 393 -51.5 405 0L0 0Z" fill="#e6afb4"></path><path d="M0 -324C43.3 -320.2 86.5 -316.4 124 -299.3C161.4 -282.3 193.1 -252.1 220.6 -220.6C248.2 -189.1 271.7 -156.4 288.3 -119.4C304.8 -82.4 314.4 -41.2 324 0L0 0Z" fill="#e08e9b"></path><path d="M0 -243C32.5 -240.1 64.9 -237.3 93 -224.5C121.1 -211.7 144.8 -189.1 165.5 -165.5C186.1 -141.8 203.8 -117.3 216.2 -89.5C228.6 -61.8 235.8 -30.9 243 0L0 0Z" fill="#d86b86"></path><path d="M0 -162C21.6 -160.1 43.3 -158.2 62 -149.7C80.7 -141.2 96.5 -126.1 110.3 -110.3C124.1 -94.6 135.8 -78.2 144.1 -59.7C152.4 -41.2 157.2 -20.6 162 0L0 0Z" fill="#cd4575"></path><path d="M0 -81C10.8 -80 21.6 -79.1 31 -74.8C40.4 -70.6 48.3 -63 55.2 -55.2C62 -47.3 67.9 -39.1 72.1 -29.8C76.2 -20.6 78.6 -10.3 81 0L0 0Z" fill="#c72c6d"></path></g></svg>